<svg xmlns="http://www.w3.org/2000/svg" preserveAspectRatio="xMinYMin meet" viewBox="0 0 208.2 41.5"><style>.s0{fill:#231f20}.s1{fill:#a8a8a6}.s2{fill:#3e3d3f}</style><style>.s0,.s1{stop-color:#fff;stop-opacity:1}.s1{stop-color:#bab9b7}.s2{fill:#231f20}.s3{fill:#a8a8a6}.s4{fill:#3e3d3f}.s5{fill:#2e9f40}</style><g clip-path="url(#clipPath130)" transform="matrix(.13 0 0 -.13 0 71.787)"><path d="M1433 302s-21.1-6.4-21.6 6.1c-.5 13.5 70.3 76 70.3 76s-4.3 13.4-17.1 29.3c-14.4 18.1-18.3 20.7-49.9 28.6-23.8 6-37.3 29.8-19.8 54.5 15.5 21.8 32.3 18.4 48.3 7.8 20.8-13.9 15.7-38.4 37.2-56.8 21.6-18.3 39.8-23.4 52.6-12.8 12.8 10.6 8.7 28 16.6 45.9 7.9 17.9 25.9 26.8 41.5 20.4 15.6-6.4 23.3-19 26.2-27.2 6.4-17.8-15.9-33.6-15.9-33.6s28.4 11 34.2 6.1c5.8-4.9 2.8-9.1-11.6-23.6-17.8-17.9-56-59.3-56-59.3s6.3-10.7 19.3-21.9c23.8-20.6 56.7-15.4 65.9-27 22.8-28.6 11.3-49.4-5.4-61.2-16.7-11.9-30-12.6-45.5-2s-7.2 31-32.7 56.1c-15 14.8-38.5 37.8-47.4 26.5-8.9-11.3-11.6-30.7-11.4-39.6.5-23.9-13.9-48.3-30.5-50.5-16.6-2.2-31.1-5.8-50.9 16.9-14.2 16.3 5.2 46.9 3.7 41.3" fill="#231f20"/><path d="M1425.3 506.2c-7.2-.3-10.4-6.6-4.4-12.2 6-5.7 6.4-6.1 10.1-3.7 6 3.7 10.1 9 4.4 12.2-5.7 3.2-10.2 3.7-10.2 3.7" fill="#a8a8a6"/><path d="M1437.4 481.7c7.5-7.9 20.8-23.2 21.9-21.9 1.1 1.3 1.1 3.1-3.1 10.4-4.2 7.3-13.9 20.1-16.4 18.1-2.4-2-2.4-6.6-2.4-6.6m145.5 15.5c-2.4 6-16.1-.8-25-11.2-2.8-3.3-7.1-22.8-8.5-31.5-1.4-8.7-2.9-12.8-5.2-16-2.3-3.2-12.8-9.9-10.7-10.6 2.1-.6 13.5 5.5 18 13.7 4.6 8.1 3.6 22.9 8.5 31 1.6 2.6 8.8 13.8 12.6 16.5 3.8 2.6 10.3 8.1 10.3 8.1" fill="#3e3d3f"/><path d="M1591.4 494.1c-5.4.8-12-.2-11.9-7.8.1-7.5 1-7.2 6.3-8.1 9.9-1.5 12.3 7 11.7 10.1-.6 3.1-6 5.7-6 5.7" fill="#a8a8a6"/><path d="M1612.2 440.5c-21.7-9.4-88.8-33.8-91.8-37-5.8-6.1-8.7-15.1 4-20.3 3-1.2 35.7 17.7 38.8 19.2 3.2 1.5 2.9-2.8 1.6-3.7-6.3-4.1-27.3-17.6-32.2-21.6-4.9-4-1.9-12.5 3.8-12.9 5.7-.4 11.4 6.9 14.1 8.8 13.3 9.5 57.3 46.1 66.7 54.1 16.6 14.3 19.3 17.8 13.8 18.5-5.5.6-15.9-3.8-18.7-5m-136.7-136.4c-.7 4.9 1.7 8.6 9.1 5.3 7.5-3.3 9-10.2 5.9-10.8-3.1-.6-15 5.5-15 5.5" fill="#3e3d3f"/><path d="M1593.4 321.6c-2.6 4.8-.6 9.4 10.5 5.4 11.1-4.1 25-11.5 30.4-15.8 5.3-4.3 19-13.9 15-18.8-4-4.8-2-1-15.2 5.6-13.1 6.5-37.9 18.6-40.7 23.6" fill="#828484"/><path d="M1439.2 279.1c-2.8 8.8-2.5 6.4-2.5 12.4 0 5.4 9.6 15.2 5.4 13.9-4.2-1.4-11.4-11-12.2-17.1-2.8-20.8 3.7-27.7 7.4-29.5 13.2-6.6 11.7 4.1 9.4 7.3-2.3 3.1-6.1 8.9-7.4 13.1" fill="#a8a8a6"/><path d="M1467.1 333.2c-7.2 3.1 22.2 23.6 22.1 34.4-.1 15.1-9.8 28.1-13.9 34.7-4 6.7-6.9 7.4-6.4 10.6.6 3.2 14.9-8.2 21.6-22.7 5.9-12.7 8.6-17.8 3.4-32.6-2.5-7.1-26.8-24.6-26.8-24.6" fill="#707273"/><path d="M1592.8 429.4s-57-21.8-61.3-23.7c-4.3-1.9-10.9-4-11.6-7.1-.8-3.1 8-5.9 9.7-2.7 1.7 3.2 2.8 6.8 9.1 9.3 6.4 2.5 89 33.9 89.4 36.1.4 2.1 3 2.5-4.4-.2-7.4-2.6-30.8-11.6-30.8-11.6" fill="#dfdfdd"/><path d="M1416.1 311.3s24.3 29.9 32 36.6c7.6 6.7 32.8 30.1 32.8 30.1s-17.5-20.8-26.9-29.1c-17.9-16.1-16.6-15.8-37.9-37.5" fill="#a8a8a6"/><path d="M258.2 367c-.9 34-1.8 73.8-1.3 120.2h-1.3c-9.3-39.3-21.7-84-31.4-116.7l-29.6-103.9h-62.3L107.1 370c-7.5 32.3-16.8 76.5-23.4 117.1h-.9c-1.9-41.9-3.7-86.1-5-120.1l-4.4-106.5H0l18.1 297.9h107.4l19.9-80c8-33.2 16.8-72.9 23-109.2h1.8c8.4 36.3 18.1 78.2 27 109.6l22.1 79.6h105.2l15-297.9h-77.8L258.2 367m225.8-7.1c-32.3 0-50.8-9.3-50.8-28.3 0-13.7 9.3-20.8 22.5-20.8 11.5 0 23.9 8 27.4 19.9.9 3.5.9 7.5.9 11.5v17.7zm77.4-46.4c0-21.7.9-42 3.5-53h-71.6l-4.4 19h-1.3c-15.5-17.2-37.1-23.9-60.6-23.9-44.2 0-71.6 32.3-71.6 68.5 0 58.4 52.2 84 126 84.4v1.8c0 8.8-6.6 18.6-35.4 18.6-23 0-47.3-8-61.4-16.4l-14.1 50.8c14.1 7.1 45.1 19.5 90.2 19.5 74.7 0 100.8-41.6 100.8-95.9v-73.4m123.2 226.3v-61.9h45.1v-58.4h-45.1v-62.3c0-26.1 6.2-36.7 25.2-36.7 9.3 0 12.4 0 19 1.8v-60.6c-9.3-3.1-27-6.2-47.3-6.2-23.4 0-42.9 8.4-54.4 19.9-13.3 13.3-20.3 34.9-20.3 68.1v76h-27v58.4h27V519l77.8 20.8m82.3 34.5h79.6V454.9h.9c7.5 8.8 15.9 15.9 25.6 20.3 9.7 4.9 21.7 7.5 33.1 7.5 49.1 0 76-34.9 76-96.4v-126h-79.6v117.1c0 25.6-8.4 41.1-28.3 41.1-15 0-22.1-8.8-25.6-17.2-1.8-3.5-2.2-9.3-2.2-12.8V260.3h-79.6v313.9" fill="#2e9f40"/><path d="M1091.4 558.4h80V374.5c0-86.7-41.5-118.9-113.2-118.9-16.3 0-38 2.2-53 7.1l8.9 64.1c9.7-2.7 22.1-4.9 34.9-4.9 25.6 0 42.4 11.5 42.4 52.6v183.9M1316 359.9c-32.3 0-50.8-9.3-50.8-28.3 0-13.7 9.3-20.8 22.5-20.8 11.5 0 23.9 8 27.4 19.9.9 3.5.9 7.5.9 11.5v17.7zm77.4-46.4c0-21.7.9-42 3.5-53h-71.6l-4.4 19h-1.3c-15.5-17.2-37.1-23.9-60.6-23.9-44.2 0-71.6 32.3-71.6 68.5 0 58.4 52.2 84 126 84.4v1.8c0 8.8-6.6 18.6-35.4 18.6-23 0-47.3-8-61.4-16.4l-14.1 50.8c14.1 7.1 45.1 19.5 90.2 19.5 74.7 0 100.8-41.6 100.8-95.9v-73.4" fill="#231f20"/></g></svg>